<mxfile host="app.diagrams.net" modified="2024-07-15T16:32:42.033Z" agent="Mozilla/5.0 (Macintosh; Intel Mac OS X 10_15_7) AppleWebKit/537.36 (KHTML, like Gecko) Chrome/126.0.0.0 Safari/537.36" etag="QQqOoM9P251p4_0V6et1" version="24.6.4" type="github">
  <diagram name="第 1 页" id="ArLR1oPziDnRu9Ybj1O1">
    <mxGraphModel dx="821" dy="547" grid="1" gridSize="10" guides="1" tooltips="1" connect="1" arrows="1" fold="1" page="1" pageScale="1" pageWidth="827" pageHeight="1169" math="0" shadow="0">
      <root>
        <mxCell id="0" />
        <mxCell id="1" parent="0" />
        <mxCell id="GbNxjYV9eWChFh2o1zTc-3" value="" style="edgeStyle=orthogonalEdgeStyle;rounded=0;orthogonalLoop=1;jettySize=auto;html=1;" edge="1" parent="1" source="GbNxjYV9eWChFh2o1zTc-1" target="GbNxjYV9eWChFh2o1zTc-2">
          <mxGeometry relative="1" as="geometry" />
        </mxCell>
        <mxCell id="GbNxjYV9eWChFh2o1zTc-7" value="_Content" style="edgeLabel;html=1;align=center;verticalAlign=middle;resizable=0;points=[];" vertex="1" connectable="0" parent="GbNxjYV9eWChFh2o1zTc-3">
          <mxGeometry x="-0.05" y="1" relative="1" as="geometry">
            <mxPoint as="offset" />
          </mxGeometry>
        </mxCell>
        <mxCell id="GbNxjYV9eWChFh2o1zTc-1" value="Free" style="ellipse;whiteSpace=wrap;html=1;" vertex="1" parent="1">
          <mxGeometry x="350" y="310" width="70" height="50" as="geometry" />
        </mxCell>
        <mxCell id="GbNxjYV9eWChFh2o1zTc-5" value="" style="edgeStyle=orthogonalEdgeStyle;rounded=0;orthogonalLoop=1;jettySize=auto;html=1;curved=1;" edge="1" parent="1" source="GbNxjYV9eWChFh2o1zTc-2" target="GbNxjYV9eWChFh2o1zTc-4">
          <mxGeometry relative="1" as="geometry" />
        </mxCell>
        <mxCell id="GbNxjYV9eWChFh2o1zTc-2" value="Hold" style="ellipse;whiteSpace=wrap;html=1;" vertex="1" parent="1">
          <mxGeometry x="350" y="440" width="70" height="50" as="geometry" />
        </mxCell>
        <mxCell id="GbNxjYV9eWChFh2o1zTc-6" style="rounded=0;orthogonalLoop=1;jettySize=auto;html=1;" edge="1" parent="1" source="GbNxjYV9eWChFh2o1zTc-4" target="GbNxjYV9eWChFh2o1zTc-1">
          <mxGeometry relative="1" as="geometry" />
        </mxCell>
        <mxCell id="GbNxjYV9eWChFh2o1zTc-9" style="edgeStyle=orthogonalEdgeStyle;rounded=0;orthogonalLoop=1;jettySize=auto;html=1;curved=1;" edge="1" parent="1" source="GbNxjYV9eWChFh2o1zTc-4" target="GbNxjYV9eWChFh2o1zTc-2">
          <mxGeometry relative="1" as="geometry">
            <Array as="points">
              <mxPoint x="535" y="540" />
              <mxPoint x="385" y="540" />
            </Array>
          </mxGeometry>
        </mxCell>
        <mxCell id="GbNxjYV9eWChFh2o1zTc-4" value="Renew" style="ellipse;whiteSpace=wrap;html=1;" vertex="1" parent="1">
          <mxGeometry x="500" y="440" width="70" height="50" as="geometry" />
        </mxCell>
        <mxCell id="GbNxjYV9eWChFh2o1zTc-8" style="edgeStyle=orthogonalEdgeStyle;rounded=0;orthogonalLoop=1;jettySize=auto;html=1;entryX=1;entryY=0.5;entryDx=0;entryDy=0;curved=1;" edge="1" parent="1" source="GbNxjYV9eWChFh2o1zTc-1" target="GbNxjYV9eWChFh2o1zTc-1">
          <mxGeometry relative="1" as="geometry" />
        </mxCell>
      </root>
    </mxGraphModel>
  </diagram>
</mxfile>
